<svg width="112" height="39" viewBox="0 0 112 39" fill="none" xmlns="http://www.w3.org/2000/svg">
<rect x="1.5" y="1.5" width="109" height="36" rx="8.5" stroke="black" stroke-width="3"/>
<path d="M41.837 27V10.654H51.814V13.25H45.269V17.353H50.23V19.894H45.269V24.349H52.507V27H41.837ZM55.0363 27V14.757H58.0833L58.1383 16.132C58.417 15.8973 58.7726 15.6627 59.2053 15.428C59.638 15.186 60.1146 14.9843 60.6353 14.823C61.1633 14.6617 61.695 14.5773 62.2303 14.57C63.5063 14.5407 64.445 14.8817 65.0463 15.593C65.6476 16.297 65.9483 17.5363 65.9483 19.311V27H62.5823V19.784C62.5823 18.8307 62.4576 18.1633 62.2083 17.782C61.959 17.4007 61.4713 17.2247 60.7453 17.254C60.5253 17.2613 60.276 17.3017 59.9973 17.375C59.726 17.441 59.4473 17.5437 59.1613 17.683C58.8826 17.815 58.6223 17.98 58.3803 18.178V27H55.0363ZM72.9445 27.176C72.1965 27.176 71.5768 27.055 71.0855 26.813C70.6015 26.5637 70.2385 26.1713 69.9965 25.636C69.7618 25.1007 69.6445 24.393 69.6445 23.513V17.045H68.1595V15.252C68.7022 15.098 69.1348 14.9513 69.4575 14.812C69.7875 14.6727 70.0258 14.4307 70.1725 14.086C70.2458 13.9173 70.3228 13.7193 70.4035 13.492C70.4915 13.2647 70.5832 13.019 70.6785 12.755C70.7738 12.491 70.8728 12.2233 70.9755 11.952H72.9995V14.746H76.2885V17.045H72.9995V22.094C72.9995 22.8713 73.0398 23.4397 73.1205 23.799C73.2012 24.151 73.3405 24.3783 73.5385 24.481C73.7365 24.5763 74.0225 24.624 74.3965 24.624C74.5872 24.624 74.8072 24.602 75.0565 24.558C75.3058 24.5067 75.5442 24.4443 75.7715 24.371C75.9988 24.2977 76.1748 24.2207 76.2995 24.14L76.7395 26.021C76.5415 26.197 76.2445 26.3767 75.8485 26.56C75.4525 26.736 75.0015 26.8827 74.4955 27C73.9895 27.1173 73.4725 27.176 72.9445 27.176ZM84.1279 27.176C82.2432 27.176 80.7985 26.615 79.7939 25.493C78.7892 24.371 78.2869 22.82 78.2869 20.84C78.2869 19.652 78.5142 18.5887 78.9689 17.65C79.4309 16.7113 80.0982 15.9707 80.9709 15.428C81.8435 14.878 82.9105 14.5993 84.1719 14.592C84.8099 14.5847 85.4185 14.6653 85.9979 14.834C86.5772 15.0027 87.0942 15.2777 87.5489 15.659C88.0035 16.033 88.3665 16.5317 88.6379 17.155C88.9165 17.771 89.0595 18.5263 89.0669 19.421C89.0669 19.8683 89.0595 20.2827 89.0449 20.664C89.0302 21.0453 88.9972 21.3717 88.9459 21.643H80.0909L80.3109 19.828H85.9429C85.9795 19.234 85.9465 18.7133 85.8439 18.266C85.7485 17.8113 85.5579 17.4593 85.2719 17.21C84.9859 16.9533 84.5825 16.825 84.0619 16.825C83.5559 16.825 83.1122 16.9643 82.7309 17.243C82.3569 17.5217 82.0672 18.002 81.8619 18.684C81.6639 19.3587 81.5795 20.29 81.6089 21.478C81.6382 22.2773 81.7922 22.919 82.0709 23.403C82.3569 23.8797 82.7419 24.2243 83.2259 24.437C83.7172 24.6423 84.2855 24.745 84.9309 24.745C85.2829 24.745 85.6679 24.7157 86.0859 24.657C86.5039 24.5983 86.8999 24.5213 87.2739 24.426C87.6479 24.3233 87.9339 24.2207 88.1319 24.118L88.6929 25.944C88.4215 26.164 88.0475 26.3693 87.5709 26.56C87.1015 26.7433 86.5662 26.89 85.9649 27C85.3709 27.1173 84.7585 27.176 84.1279 27.176ZM94.7671 19.014L94.6131 16.66C94.7451 16.308 94.9871 15.9743 95.3391 15.659C95.6911 15.3363 96.1091 15.076 96.5931 14.878C97.0771 14.6727 97.5868 14.57 98.1221 14.57C98.3421 14.57 98.5438 14.581 98.7271 14.603C98.9178 14.625 99.0571 14.6617 99.1451 14.713V17.98C99.0424 17.914 98.8848 17.848 98.6721 17.782C98.4594 17.716 98.1368 17.683 97.7041 17.683C97.1761 17.683 96.7214 17.76 96.3401 17.914C95.9588 18.0607 95.6361 18.2403 95.3721 18.453C95.1154 18.6583 94.9138 18.8453 94.7671 19.014ZM91.6101 27V14.757H94.5141L94.7011 16.671L94.9651 17.254V27H91.6101Z" fill="black"/>
<path d="M16.6095 26.1978L11.3593 21.3244C10.8806 20.8798 10.8799 20.1208 11.3593 19.6756L16.6095 14.8018C17.3267 14.1359 18.5 14.6435 18.5 15.6262L18.5 18.625L31.25 18.625L31.25 14.6886C31.25 14.6148 31.2645 14.5416 31.2928 14.4734C31.3211 14.4051 31.3625 14.3431 31.4148 14.2909L34.0398 11.6659C34.3941 11.3115 35 11.5625 35 12.0636L35 21.25C35 21.8713 34.4963 22.375 33.875 22.375L18.5 22.375L18.5 25.3734C18.5 26.3521 17.3296 26.8664 16.6095 26.1978Z" fill="black"/>
</svg>
