<svg width="642" height="169" viewBox="0 0 642 169" fill="none" xmlns="http://www.w3.org/2000/svg">
<path d="M16.3408 72.7328H0.927979V60.4816L16.3408 56.5296V48.2304C16.3408 39.4043 18.712 31.3685 23.4544 24.1232C28.1968 16.8779 34.52 11.1475 42.424 6.93198C50.4597 2.71652 59.0883 0.608795 68.3096 0.608795C73.1837 0.608795 77.5968 1.26746 81.5488 2.58479V31.2368C80.0997 29.656 77.2674 28.1411 73.052 26.692C68.8365 25.1112 64.6869 24.3208 60.6032 24.3208C56.256 24.3208 53.1603 25.4405 51.316 27.68C49.4717 29.9195 48.5496 33.608 48.5496 38.7456V56.332H72.2616V72.7328H48.5496V151.18L68.5072 152.958V166H1.12558V152.958L16.3408 151.18V72.7328ZM109.015 39.1408C103.878 39.1408 99.728 37.6259 96.5664 34.596C93.4048 31.5661 91.824 27.68 91.824 22.9376C91.824 17.4048 93.5365 12.86 96.9616 9.30319C100.518 5.74639 105.261 3.96799 111.189 3.96799C117.117 3.96799 121.662 5.48292 124.823 8.51279C127.985 11.5427 129.566 15.4288 129.566 20.1712C129.566 25.8357 127.787 30.4464 124.23 34.0032C120.674 37.4283 115.668 39.1408 109.213 39.1408H109.015ZM96.9616 76.8824L83.7224 73.128V58.308L123.242 53.5656H123.638L129.763 57.7152V151.18L141.619 152.958V166H84.7104V152.958L96.9616 151.18V76.8824Z" fill="black"/>
<path d="M164.058 23.3328L150.621 20.764V8.71039L189.943 3.96799H190.536L196.266 8.11759V100.397L195.674 110.079L232.822 70.9544L218.2 68.7808V56.332H271.947V68.7808L255.744 71.3496L234.403 91.7024L267.007 151.18L277.282 152.958V166H222.35V152.958L231.242 151.18L211.679 112.055L195.674 128.654L196.069 138.731V151.18L207.53 152.958V166H153.19V152.958L164.058 151.18V23.3328Z" fill="black"/>
<path d="M280.337 134.384C280.337 122.791 286.2 113.899 297.924 107.708C309.78 101.517 325.324 98.3549 344.557 98.2232V94.2712C344.557 89.5288 344.031 85.7744 342.977 83.008C341.923 80.2416 340.013 78.1997 337.246 76.8824C334.48 75.4333 330.396 74.7088 324.995 74.7088C318.54 74.7088 312.744 75.4992 307.606 77.08C302.6 78.5291 297.331 80.5051 291.798 83.008L285.08 68.7808C287.188 67.0683 290.613 65.0264 295.355 62.6552C300.097 60.1523 305.762 58.0445 312.349 56.332C319.067 54.4877 326.049 53.5656 333.294 53.5656C343.833 53.5656 352.066 54.9488 357.994 57.7152C364.054 60.4816 368.335 64.7629 370.838 70.5592C373.473 76.3555 374.79 84.2595 374.79 94.2712V152.958H385.065V165.407C382.036 166.066 377.82 166.725 372.419 167.383C367.018 168.042 362.407 168.371 358.587 168.371C353.581 168.371 350.222 167.647 348.509 166.198C346.929 164.749 346.138 161.85 346.138 157.503V152.958C342.845 156.91 338.432 160.467 332.899 163.629C327.366 166.659 320.977 168.174 313.732 168.174C307.54 168.174 301.876 166.856 296.738 164.222C291.732 161.455 287.715 157.569 284.685 152.563C281.787 147.426 280.337 141.366 280.337 134.384ZM329.145 149.994C331.516 149.994 334.151 149.336 337.049 148.018C339.947 146.569 342.45 144.857 344.557 142.881V111.462C334.282 111.462 326.642 113.307 321.636 116.995C316.762 120.684 314.325 125.426 314.325 131.222C314.325 137.15 315.642 141.761 318.277 145.054C320.911 148.348 324.534 149.994 329.145 149.994Z" fill="black"/>
<path d="M394.217 111.858C394.217 101.187 396.259 91.4389 400.342 82.6128C404.558 73.6549 410.749 66.5413 418.917 61.272C427.216 56.0027 437.294 53.368 449.15 53.368C454.287 53.368 459.293 54.0267 464.167 55.344C469.041 56.5296 473.257 57.8469 476.814 59.296L476.023 87.5528H466.143L461.994 68.5832C461.203 64.6312 455.539 62.6552 445 62.6552C434.725 62.6552 426.491 66.6072 420.3 74.5112C414.24 82.4152 411.21 93.2173 411.21 106.918C411.21 123.253 414.504 135.635 421.09 144.066C427.677 152.497 436.24 156.713 446.778 156.713C452.311 156.713 457.646 155.791 462.784 153.946C468.053 152.102 472.401 149.994 475.826 147.623L478.987 154.144C475.167 157.964 469.898 161.258 463.179 164.024C456.461 166.79 449.808 168.174 443.222 168.174C432.815 168.174 423.923 165.737 416.546 160.862C409.169 155.857 403.57 149.138 399.75 140.707C396.061 132.145 394.217 122.528 394.217 111.858Z" fill="black"/>
<path d="M496.927 110.474C496.927 99.0136 499.298 88.936 504.041 80.2416C508.915 71.5472 515.238 64.8947 523.01 60.284C530.914 55.6733 539.148 53.368 547.71 53.368C564.309 53.368 576.56 58.7691 584.464 69.5712C592.5 80.3733 596.518 94.2053 596.518 111.067C596.518 122.528 594.08 132.606 589.206 141.3C584.464 149.994 578.141 156.647 570.237 161.258C562.464 165.868 554.297 168.174 545.734 168.174C529.136 168.174 516.819 162.773 508.783 151.97C500.879 141.168 496.927 127.336 496.927 110.474ZM546.722 157.898C556.866 157.898 564.704 154.012 570.237 146.24C575.77 138.468 578.536 127.139 578.536 112.253C578.536 98.0256 575.967 86.3672 570.83 77.2776C565.692 68.188 557.722 63.6432 546.92 63.6432C536.776 63.6432 528.872 67.5293 523.208 75.3016C517.675 83.0739 514.909 94.4029 514.909 109.289C514.909 123.648 517.478 135.372 522.615 144.462C527.884 153.419 535.92 157.898 546.722 157.898Z" fill="black"/>
<path d="M629.068 168.174C626.038 168.174 623.469 167.186 621.361 165.21C619.253 163.102 618.2 160.401 618.2 157.108C618.2 153.419 619.451 150.324 621.954 147.821C624.589 145.318 627.618 144.066 631.044 144.066C634.6 144.066 637.235 145.12 638.948 147.228C640.792 149.336 641.714 151.97 641.714 155.132C641.714 158.821 640.462 161.916 637.96 164.419C635.457 166.922 632.493 168.174 629.068 168.174Z" fill="black"/>
</svg>
